<svg viewBox="0 0 1100 850" xmlns="http://www.w3.org/2000/svg">
  <!-- Styles -->
  <style>
    .entity { fill: #ffffff; stroke: #000000; stroke-width: 2; }
    .entity-header { fill: #e6f3ff; stroke: #000000; stroke-width: 2; }
    .entity-text { font-family: Arial, sans-serif; font-size: 14px; }
    .entity-name { font-family: Arial, sans-serif; font-size: 16px; font-weight: bold; text-anchor: middle; }
    .pk { fill: #000000; }
    .fk { fill: #0066cc; }
    .line { stroke: #000000; stroke-width: 1.5; }
    .dashed { stroke-dasharray: 5, 5; }
    .cardinality { font-family: Arial, sans-serif; font-size: 12px; }
  </style>
  
  <g transform="translate(50, 50)">
    <rect class="entity" width="200" height="105" rx="0" ry="0" />
    <rect class="entity-header" width="200" height="30" rx="0" ry="0" />
    <line x1="0" y1="30" x2="200" y2="30" stroke="#000000" stroke-width="1" />
    <text x="100" y="20" class="entity-name">courses</text>
    <text x="10" y="50" class="entity-text pk">+ id: serial [PK]</text>
    <text x="10" y="70" class="entity-text">+ title: text</text>
    <text x="10" y="90" class="entity-text">+ imageSrc: text</text>
  </g>
  
  <g transform="translate(400, 50)">
    <rect class="entity" width="200" height="145" rx="0" ry="0" />
    <rect class="entity-header" width="200" height="30" rx="0" ry="0" />
    <line x1="0" y1="30" x2="200" y2="30" stroke="#000000" stroke-width="1" />
    <text x="100" y="20" class="entity-name">units</text>
    <text x="10" y="50" class="entity-text pk">+ id: serial [PK]</text>
    <text x="10" y="70" class="entity-text">+ title: text</text>
    <text x="10" y="90" class="entity-text">+ description: text</text>
    <text x="10" y="110" class="entity-text fk">+ courseId: integer [FK]</text>
    <text x="10" y="130" class="entity-text">+ order: integer</text>
  </g>
  
  <g transform="translate(750, 50)">
    <rect class="entity" width="200" height="125" rx="0" ry="0" />
    <rect class="entity-header" width="200" height="30" rx="0" ry="0" />
    <line x1="0" y1="30" x2="200" y2="30" stroke="#000000" stroke-width="1" />
    <text x="100" y="20" class="entity-name">lessons</text>
    <text x="10" y="50" class="entity-text pk">+ id: serial [PK]</text>
    <text x="10" y="70" class="entity-text">+ title: text</text>
    <text x="10" y="90" class="entity-text fk">+ unitId: integer [FK]</text>
    <text x="10" y="110" class="entity-text">+ order: integer</text>
  </g>
  
  <g transform="translate(750, 250)">
    <rect class="entity" width="200" height="145" rx="0" ry="0" />
    <rect class="entity-header" width="200" height="30" rx="0" ry="0" />
    <line x1="0" y1="30" x2="200" y2="30" stroke="#000000" stroke-width="1" />
    <text x="100" y="20" class="entity-name">challenges</text>
    <text x="10" y="50" class="entity-text pk">+ id: serial [PK]</text>
    <text x="10" y="70" class="entity-text fk">+ lessonId: integer [FK]</text>
    <text x="10" y="90" class="entity-text">+ type: enum(SELECT,ASSIST)</text>
    <text x="10" y="110" class="entity-text">+ question: text</text>
    <text x="10" y="130" class="entity-text">+ order: integer</text>
  </g>
  
  <g transform="translate(400, 250)">
    <rect class="entity" width="200" height="165" rx="0" ry="0" />
    <rect class="entity-header" width="200" height="30" rx="0" ry="0" />
    <line x1="0" y1="30" x2="200" y2="30" stroke="#000000" stroke-width="1" />
    <text x="100" y="20" class="entity-name">challengeOptions</text>
    <text x="10" y="50" class="entity-text pk">+ id: serial [PK]</text>
    <text x="10" y="70" class="entity-text fk">+ challengeId: integer [FK]</text>
    <text x="10" y="90" class="entity-text">+ text: text</text>
    <text x="10" y="110" class="entity-text">+ correct: boolean</text>
    <text x="10" y="130" class="entity-text">+ imageSrc: text</text>
    <text x="10" y="150" class="entity-text">+ audioSrc: text</text>
  </g>
  
  <g transform="translate(750, 450)">
    <rect class="entity" width="200" height="125" rx="0" ry="0" />
    <rect class="entity-header" width="200" height="30" rx="0" ry="0" />
    <line x1="0" y1="30" x2="200" y2="30" stroke="#000000" stroke-width="1" />
    <text x="100" y="20" class="entity-name">challengeProgress</text>
    <text x="10" y="50" class="entity-text pk">+ id: serial [PK]</text>
    <text x="10" y="70" class="entity-text">+ userId: text</text>
    <text x="10" y="90" class="entity-text fk">+ challengeId: integer [FK]</text>
    <text x="10" y="110" class="entity-text">+ completed: boolean</text>
  </g>
  
  <!-- Entity: userProgress -->
  <g transform="translate(50, 250)">
    <rect class="entity" width="210" height="165" rx="0" ry="0" />
    <rect class="entity-header" width="210" height="30" rx="0" ry="0" />
    <line x1="0" y1="30" x2="210" y2="30" stroke="#000000" stroke-width="1" />
    <text x="105" y="20" class="entity-name">userProgress</text>
    <text x="10" y="50" class="entity-text pk">+ userId: text [PK]</text>
    <text x="10" y="70" class="entity-text">+ userName: text</text>
    <text x="10" y="90" class="entity-text">+ userImageSrc: text</text>
    <text x="10" y="110" class="entity-text fk">+ activeCourseId: integer [FK]</text>
    <text x="10" y="130" class="entity-text">+ hearts: integer</text>
    <text x="10" y="150" class="entity-text">+ points: integer</text>
  </g>
  
  <g transform="translate(50, 450)">
    <rect class="entity" width="230" height="165" rx="0" ry="0" />
    <rect class="entity-header" width="230" height="30" rx="0" ry="0" />
    <line x1="0" y1="30" x2="230" y2="30" stroke="#000000" stroke-width="1" />
    <text x="115" y="20" class="entity-name">userSubscription</text>
    <text x="10" y="50" class="entity-text pk">+ id: serial [PK]</text>
    <text x="10" y="70" class="entity-text">+ userId: text [UNIQUE]</text>
    <text x="10" y="90" class="entity-text">+ stripeCustomerId: text [UNIQUE]</text>
    <text x="10" y="110" class="entity-text">+ stripeSubscriptionId: text [UNIQUE]</text>
    <text x="10" y="130" class="entity-text">+ stripePriceId: text</text>
    <text x="10" y="150" class="entity-text">+ stripeCurrentPeriodEnd: timestamp</text>
  </g>
  
  <line x1="250" y1="100" x2="400" y2="100" class="line" />
  <text x="260" y="95" class="cardinality">1</text>
  <text x="390" y="95" class="cardinality">*</text>
  
  <line x1="600" y1="100" x2="750" y2="100" class="line" />
  <text x="610" y="95" class="cardinality">1</text>
  <text x="740" y="95" class="cardinality">*</text>
  
  <line x1="850" y1="175" x2="850" y2="250" class="line" />
  <text x="855" y="185" class="cardinality">1</text>
  <text x="855" y="240" class="cardinality">*</text>
  
  <line x1="750" y1="320" x2="600" y2="320" class="line" />
  <text x="740" y="315" class="cardinality">1</text>
  <text x="610" y="315" class="cardinality">*</text>
  
  <line x1="850" y1="395" x2="850" y2="450" class="line" />
  <text x="855" y="405" class="cardinality">1</text>
  <text x="855" y="440" class="cardinality">*</text>
  
  <path d="M150,155 L150,250" class="line" />
  <text x="155" y="165" class="cardinality">1</text>
  <text x="155" y="240" class="cardinality">*</text>
  
  <line x1="155" y1="415" x2="155" y2="450" class="line dashed" />
  <text x="160" y="425" class="cardinality">1</text>
  <text x="160" y="440" class="cardinality">0..1</text>
  
  <text x="550" y="30" font-family="Arial, sans-serif" font-size="24" font-weight="bold" text-anchor="middle">Diagramme UML de Classes</text>
  
</svg>