<svg viewBox="0 0 500 500" xmlns="http://www.w3.org/2000/svg">
  <!-- Définition des couleurs et styles -->
  <defs>
    <!-- Gradients pour le corps -->
    <linearGradient id="bodyGradient" x1="0%" y1="0%" x2="100%" y2="100%">
      <stop offset="0%" stop-color="#6A11CB" />
      <stop offset="100%" stop-color="#2575FC" />
    </linearGradient>
    
    <!-- Gradient pour les lunettes -->
    <linearGradient id="glassesGradient" x1="0%" y1="0%" x2="0%" y2="100%">
      <stop offset="0%" stop-color="#FF9900" />
      <stop offset="100%" stop-color="#FF3434" />
    </linearGradient>
    
    <!-- Gradient pour les chaussures -->
    <linearGradient id="shoesGradient" x1="0%" y1="0%" x2="0%" y2="100%">
      <stop offset="0%" stop-color="#111111" />
      <stop offset="100%" stop-color="#444444" />
    </linearGradient>
    
    <!-- Glow effect -->
    <filter id="glow">
      <feGaussianBlur stdDeviation="4" result="blur" />
      <feFlood flood-color="#2575FC" flood-opacity="0.7" result="color" />
      <feComposite in="color" in2="blur" operator="in" result="glowBlur" />
      <feComposite in="SourceGraphic" in2="glowBlur" operator="over" />
    </filter>
    
    <!-- Shadows -->
    <filter id="shadow" x="-20%" y="-20%" width="140%" height="140%">
      <feGaussianBlur in="SourceAlpha" stdDeviation="5" />
      <feOffset dx="3" dy="5" result="offsetblur" />
      <feComponentTransfer>
        <feFuncA type="linear" slope="0.5" />
      </feComponentTransfer>
      <feMerge>
        <feMergeNode />
        <feMergeNode in="SourceGraphic" />
      </feMerge>
    </filter>
    
    <!-- Pattern for background -->
    <pattern id="gridPattern" width="20" height="20" patternUnits="userSpaceOnUse">
      <rect width="20" height="20" fill="#1a1a2e" />
      <rect width="10" height="10" fill="#16213e" />
      <rect x="10" y="10" width="10" height="10" fill="#16213e" />
    </pattern>
  </defs>
  
  <!-- Background -->
  <rect width="500" height="500" fill="url(#gridPattern)" />
  
  <!-- Aura/Glow -->
  <circle cx="250" cy="250" r="150" fill="#2575FC" opacity="0.1" filter="url(#glow)" />
  
  <!-- Corps principal -->
  <g filter="url(#shadow)" transform="translate(0, 20)">
    <!-- Shoes -->
    <ellipse cx="205" cy="430" rx="40" ry="15" fill="url(#shoesGradient)" />
    <ellipse cx="295" cy="430" rx="40" ry="15" fill="url(#shoesGradient)" />
    
    <!-- Jambes -->
    <rect x="195" y="360" width="20" height="70" rx="10" fill="#0A0A23" />
    <rect x="285" y="360" width="20" height="70" rx="10" fill="#0A0A23" />
    
    <!-- Corps -->
    <path d="M180,250 Q170,320 195,360 L305,360 Q330,320 320,250 Q340,200 250,170 Q160,200 180,250 Z" fill="url(#bodyGradient)" />
    <rect x="220" y="340" width="60" height="20" rx="10" fill="#0A0A23" />
    
    <!-- Bras -->
    <path d="M180,250 Q140,270 120,340" stroke="url(#bodyGradient)" stroke-width="25" stroke-linecap="round" fill="none" />
    <path d="M320,250 Q360,270 380,340" stroke="url(#bodyGradient)" stroke-width="25" stroke-linecap="round" fill="none" />
    <circle cx="120" cy="340" r="20" fill="#FFFFFF" stroke="#0A0A23" stroke-width="3" />
    <circle cx="380" cy="340" r="20" fill="#FFFFFF" stroke="#0A0A23" stroke-width="3" />
    
    <!-- Tête -->
    <circle cx="250" cy="170" r="80" fill="url(#bodyGradient)" />
    
    <!-- Visage -->
    <!-- Lunettes de soleil -->
    <path d="M190,160 Q250,140 310,160" fill="none" stroke="#000000" stroke-width="8" />
    <path d="M190,160 L170,170" stroke="#000000" stroke-width="8" />
    <path d="M310,160 L330,170" stroke="#000000" stroke-width="8" />
    
    <circle cx="215" cy="170" r="30" fill="#000000" />
    <circle cx="285" cy="170" r="30" fill="#000000" />
    <circle cx="215" cy="170" r="25" fill="url(#glassesGradient)" opacity="0.5" />
    <circle cx="285" cy="170" r="25" fill="url(#glassesGradient)" opacity="0.5" />
    
    <!-- Bouche cool -->
    <path d="M230,210 Q250,220 270,210" stroke="#FFFFFF" stroke-width="5" fill="none" stroke-linecap="round" />
    
    <!-- Casquette à l'envers -->
    <path d="M180,130 L320,130 C320,100 280,80 250,80 C220,80 180,100 180,130 Z" fill="#0A0A23" />
    <path d="M180,130 L320,130 C320,140 280,145 250,145 C220,145 180,140 180,130 Z" fill="#FF3434" />
    <path d="M280,110 L250,95 L220,110" fill="none" stroke="#FFFFFF" stroke-width="3" stroke-linecap="round" />
    
    <!-- Accessoires cool -->
    <!-- Écouteurs sans fil -->
    <path d="M170,170 Q160,150 170,130" fill="none" stroke="#FFFFFF" stroke-width="4" />
    <circle cx="170" cy="170" r="8" fill="#FF3434" />
    
    <path d="M330,170 Q340,150 330,130" fill="none" stroke="#FFFFFF" stroke-width="4" />
    <circle cx="330" cy="170" r="8" fill="#FF3434" />
  </g>
  
  <!-- Éléments flottants -->
  <g filter="url(#glow)">
    <!-- Symboles d'apprentissage flottants -->
    <!-- Code -->
    <g transform="translate(390, 180) rotate(15)">
      <rect width="40" height="30" rx="5" fill="#2575FC" opacity="0.9" />
      <text x="20" y="20" font-family="monospace" font-size="14" fill="white" text-anchor="middle">&lt;/&gt;</text>
    </g>
    
    <!-- Formule mathématique -->
    <g transform="translate(110, 180) rotate(-15)">
      <rect width="40" height="30" rx="5" fill="#FF3434" opacity="0.9" />
      <text x="20" y="20" font-family="monospace" font-size="14" fill="white" text-anchor="middle">∑=</text>
    </g>
    
    <!-- Langue/Expression -->
    <g transform="translate(420, 280) rotate(15)">
      <rect width="40" height="30" rx="5" fill="#7928CA" opacity="0.9" />
      <text x="20" y="20" font-family="monospace" font-size="14" fill="white" text-anchor="middle">abc</text>
    </g>
    
    <!-- Sciences -->
    <g transform="translate(80, 280) rotate(-15)">
      <rect width="40" height="30" rx="5" fill="#00B4D8" opacity="0.9" />
      <text x="20" y="20" font-family="monospace" font-size="16" fill="white" text-anchor="middle">⚗️</text>
    </g>
    
    <!-- Étoiles décoratives -->
    <path d="M410,120 L415,130 L425,130 L417,140 L420,150 L410,145 L400,150 L403,140 L395,130 L405,130 Z" fill="#FFD700" />
    <path d="M90,120 L95,130 L105,130 L97,140 L100,150 L90,145 L80,150 L83,140 L75,130 L85,130 Z" fill="#FFD700" />
    <path d="M430,350 L435,360 L445,360 L437,370 L440,380 L430,375 L420,380 L423,370 L415,360 L425,360 Z" fill="#FFD700" />
    <path d="M70,350 L75,360 L85,360 L77,370 L80,380 L70,375 L60,380 L63,370 L55,360 L65,360 Z" fill="#FFD700" />
  </g>

</svg>